<?xml version="1.0" encoding="UTF-8"?><svg id="_10_Anos" xmlns="http://www.w3.org/2000/svg" viewBox="0 0 132.64 113.19"><defs><style>.cls-1{fill:#ec756f;}.cls-2{fill:#f99766;}</style></defs><path class="cls-1" d="m118.52,41.29c-11.21,11.38-46.7,40.04-115.23,23.85-.56-.13-1.01.46-.73.96,5.71,10.16,15.2,18.13,25.29,23.94,18.62,10.72,39.36,18,60.6,21.2,6.3.95,12.66,1.55,19.03,1.66,1.73.03,5.5.72,7.08-.14,1.57-.86,3.57-7.45,4.26-9.02,1.24-2.86,2.41-5.76,3.49-8.69,1.75-4.74,3.3-9.55,4.64-14.42v-.02c.18-.62-.55-1.09-1.05-.68-12.93,10.67-24.47,14.66-28.14,15.85-8.54,2.76-18.53-2.13-16.46-8.63,2.2-6.88,10.69-2.23,12.47-1.16.21.12.46.12.67,0,3.38-1.96,6.65-4.12,9.8-6.43,12.03-8.8,21.78-18.73,28.17-31.74l.07-.26c.46-8.46-.05-16.99-2.61-25-4.28,12.16-9.66,17.31-11.37,18.71"/><path class="cls-2" d="m129.89,22.58c-.66-2.07-1.46-4.11-2.41-6.1C122.96,7.08,113.85-1.33,102.7.17c-10.6,1.43-16.52,10.84-16.21,20.86.02.58-.66.9-1.1.51C65.13,3.51,27.56-3.19,7.76,18.4,4.44,22.02,1.84,26.19.04,30.67c-.11.28-.01.61.24.79,16.43,11.37,36.05,18.79,56.06,19.74,17.65.84,32.87-4.65,47.87-13.64,3.35-2.01,6.61-4.18,9.73-6.53.19-.14.29-.38.26-.62-.29-2.05-1.27-11.69,5.92-11.04,6.79.62,7.41,11.73,1.54,18.52-.66.76-1.7,1.94-3.14,3.4,1.71-1.4,7.08-6.54,11.37-18.71"/></svg>